<?xml version="1.0" encoding="UTF-8"?>
<svg id="Layer_1" data-name="Layer 1" xmlns="http://www.w3.org/2000/svg" viewBox="0 0 934.46 947.3">
  <defs>
    <style>
      .cls-1 {
        fill: #fff;
      }

      .cls-2 {
        fill: #fff;
      }
    </style>
  </defs>
  <path class="cls-2" d="m422.71,213.22c0,21.59-6.05,43.28-18.12,65.08-12.08,21.81-30.21,44.6-54.36,68.37-7.74,7.49-16.43,14.31-26.09,20.48-13.53,8.36-25.37,12.56-35.52,12.56-16.92,0-25.37-7.93-25.37-23.79,0-6.61.6-11.35,1.81-14.21,1.2-2.86,3.5-6.72,6.89-11.57,1.93-3.08,14.73-18.5,38.42-46.27,14.97-17.61,26.09-38.1,33.34-61.46,1.45-6.17,2.17-12.12,2.17-17.85,0-19.38-7.25-36.68-21.75-51.88-14.5-15.2-32.62-22.8-54.36-22.8h-8.7c-11.12,0-23.68,2.31-37.69,6.92-14.02,4.61-24.17,10.66-30.44,18.13,13.05,6.59,24.16,16.48,33.34,29.66,11.11,16.26,16.67,34.72,16.67,55.37,0,34.72-10.15,62.85-30.44,84.38-20.3,21.54-47.84,32.3-82.63,32.3-18.37,0-36-6.79-52.91-20.38-18.85-15.35-29.72-35.07-32.62-59.19-.49-3.5-.72-8.33-.72-14.47,0-50.85,23.67-95.57,71.03-134.16,44.94-36.39,93.74-54.59,146.42-54.59s93.25,13.43,121.77,40.29c26.57,25.11,39.87,58.14,39.87,99.1Zm-252.97,29.37c-1.94-10.1-5.8-18.67-11.6-25.71-5.8-7.02-11.85-10.55-18.12-10.55-5.32,2.2-11.12,10.11-17.4,23.73-6.29,13.63-9.42,26.59-9.42,38.89,0,8.35,3.62,16.26,10.87,23.73,2.41,2.2,6.04,5.06,10.87,8.57,10.62.89,19.32-2.52,26.09-10.22,6.76-7.68,10.15-18.79,10.15-33.29v-7.25c-.97-3.51-1.45-6.15-1.45-7.91Z"/>
  <path class="cls-2" d="m930.11,364.57c-5.32,22.85-14.98,41.53-28.99,56.03-6.29,6.15-17.4,14.5-33.34,25.05-5.32,3.51-11.6,5.27-18.85,5.27-8.22,0-15.71-2.42-22.47-7.25-6.77-4.84-10.15-10.99-10.15-18.46,0-6.59,3.62-13.84,10.87-21.75,10.15-9.23,16.55-15.06,19.21-17.47,2.65-2.42,6.16-7.81,10.51-16.15,6.27-10.98,9.42-25.05,9.42-42.19,0-14.94-2.67-29.11-8.01-42.52-5.35-13.4-13.35-24.06-24.02-31.97-12.07,32.08-31.28,58.57-57.6,79.43-26.33,20.88-55.68,31.31-88.05,31.31-20.3,0-37.92-2.52-52.89-7.58-14.97-5.05-28.74-13.95-41.3-26.7-19.81,24.17-43.48,36.26-71,36.26-21.27,0-39.63-6.37-55.08-19.12-17.4-14.06-26.08-32.07-26.08-54.05v-6.59c0-29.88,15.43-57.24,46.3-82.07,30.87-24.82,63.67-38.78,98.41-41.86,5.3-24.16,17.6-46.14,36.9-65.92,26.05-26.8,57.89-40.21,95.51-40.21,9.16,0,16.4.44,21.71,1.32,32.31,4.4,58.24,16.81,77.77,37.25,19.54,20.44,29.31,45.81,29.31,76.14v13.18c22.04,8.35,41.44,25.28,58.23,50.76,18.69,28.13,28.03,58.9,28.03,92.29,0,12.31-1.45,24.83-4.35,37.57Zm-158.02-144.37c-10.15-4.39-23.32-7.68-39.5-9.89-16.2-2.19-32.98-3.3-50.38-3.3-38.18,0-68.86,4.23-92.05,12.69-30.93,11.14-52.91,25.17-65.96,42.09-10.15,13.37-13.3,23.83-9.42,31.39,5.31,9.35,11.84,14.03,19.57,14.03,7.25,0,14.01-3.36,20.3-10.09,6.27-6.74,10.39-15.72,12.32-26.94,2.9-7.62,7.49-13.46,13.77-17.5,8.21-5.39,18.85-8.09,31.89-8.09,5.31,0,11.6.66,18.85,1.98,0,19.34,5.55,34.28,16.67,44.83,11.11,10.55,24.64,15.82,40.59,15.82,21.26,0,40.59-10.76,57.99-32.3,14.5-18.46,22.95-36.69,25.37-54.71Zm2.17-61.97c0-11.42-3.39-21.31-10.15-29.66-8.7-10.55-21.27-15.82-37.69-15.82s-29.48,4.18-39.14,12.52c-5.8,4.84-11.85,13.41-18.12,25.71,5.8-.43,10.99-.76,15.58-.99,4.59-.22,8.57-.33,11.96-.33,13.05,0,26.33.66,39.87,1.98,13.52,1.32,26.09,3.52,37.69,6.59Z"/>
  <path class="cls-2" d="m379.09,610.14c0,21.59-6.05,43.28-18.12,65.08-12.08,21.81-30.21,44.6-54.36,68.37-7.74,7.49-16.43,14.31-26.09,20.48-13.53,8.36-25.37,12.56-35.52,12.56-16.92,0-25.37-7.93-25.37-23.79,0-6.61.6-11.35,1.81-14.21,1.2-2.86,3.5-6.72,6.89-11.57,1.93-3.08,14.73-18.5,38.42-46.27,14.97-17.61,26.09-38.1,33.34-61.46,1.45-6.17,2.17-12.12,2.17-17.85,0-19.38-7.25-36.68-21.75-51.88-14.5-15.2-32.62-22.8-54.36-22.8h-8.7c-11.12,0-23.68,2.31-37.69,6.92-14.02,4.61-24.17,10.66-30.44,18.13,13.05,6.59,24.16,16.48,33.34,29.66,11.11,16.26,16.67,34.72,16.67,55.37,0,34.72-10.15,62.85-30.44,84.38-20.3,21.54-47.84,32.3-82.63,32.3-18.37,0-36-6.79-52.91-20.38-18.85-15.35-29.72-35.07-32.62-59.19-.49-3.5-.72-8.33-.72-14.47,0-50.85,23.67-95.57,71.03-134.16,44.94-36.39,93.74-54.59,146.42-54.59s93.25,13.43,121.77,40.29c26.57,25.11,39.87,58.14,39.87,99.1Zm-252.97,29.37c-1.94-10.1-5.8-18.67-11.6-25.71-5.8-7.02-11.85-10.55-18.12-10.55-5.32,2.2-11.12,10.11-17.4,23.73-6.29,13.63-9.42,26.59-9.42,38.89,0,8.35,3.62,16.26,10.87,23.73,2.41,2.2,6.04,5.06,10.87,8.57,10.62.89,19.32-2.52,26.09-10.22,6.76-7.68,10.15-18.79,10.15-33.29v-7.25c-.97-3.51-1.45-6.15-1.45-7.91Z"/>
  <path class="cls-2" d="m724.35,870.9c-21.55,12.7-42.92,19.67-64.1,20.89-9.23.29-23.58-.96-43.05-3.79-6.49-.95-12.29-3.75-17.41-8.41-5.81-5.3-9.21-11.83-10.22-19.59-1.01-7.78,1.39-14.3,7.21-19.57,5.13-4.65,13.34-7.44,24.62-8.36,14.35.02,23.41.02,27.16.04,3.76,0,10.43-1.54,20-4.63,12.98-3.71,26.16-11.62,39.51-23.72,11.63-10.54,20.78-22.27,27.46-35.18,6.66-12.9,9.31-25.59,7.94-38.04-33.51,14.88-67.69,21.2-102.52,18.98-34.85-2.22-63.69-13.75-86.55-34.6-14.33-13.07-24.81-26.2-31.44-39.42-6.64-13.21-9.43-28.36-8.37-45.45-32.81,4.31-58.93-2.4-78.36-20.13-15.02-13.7-23.02-30.02-24-48.97-1.33-21.13,6.56-39.44,23.68-54.96l5.13-4.65c23.27-21.1,55.46-30.48,96.6-28.13,41.13,2.36,75.15,13.63,102.08,33.83,22.56-13.65,48.36-21.24,77.38-22.78,39.26-2.15,72.18,8.89,98.75,33.12,6.47,5.9,11.23,10.87,14.3,14.91,19.39,23.92,28.03,49.38,25.91,76.39-2.12,27.01-14.98,51.22-38.59,72.63-4.45,4.04-7.88,7.14-10.27,9.31,9.06,20.09,9.58,44.54,1.58,73.34-8.71,31.9-26.07,59.64-52.07,83.21-9.58,8.69-20.36,16.6-32.33,23.73Zm.85-203.7c-3.75-9.63-10.48-20.44-20.19-32.42-9.73-11.98-20.72-23.57-33-34.77-26.96-24.59-51.91-41.36-74.88-50.33-30.52-12.05-56.96-16.31-79.34-12.77-17.58,2.9-27.95,8.26-31.1,16.1-3.53,10.02-2.57,17.53,2.89,22.51,5.12,4.67,12.51,6.65,22.19,5.94,9.68-.72,19.57-4.41,29.68-11.09,7.98-3.51,15.77-4.68,23.35-3.49,9.99,1.48,19.6,6.43,28.81,14.83,3.75,3.42,7.67,7.93,11.77,13.53-15.06,13.66-22.77,27.78-23.13,42.39-.37,14.6,5.08,27.04,16.34,37.31,15.01,13.69,37.04,18.54,66.09,14.54,24.61-3.7,44.77-11.13,60.52-22.29Zm49.79-42.35c8.89-8.06,14.2-17.23,15.93-27.48,2.07-13.05-2.7-24.87-14.29-35.45s-24.07-16.03-37.39-16.37c-7.86-.32-18.81,1.84-32.81,6.48,4.43,3.43,8.35,6.54,11.77,9.34,3.41,2.8,6.31,5.29,8.7,7.47,9.21,8.4,18.08,17.42,26.61,27.07,8.52,9.64,15.68,19.29,21.48,28.93Z"/>
  <path class="cls-2" d="m181.65,53.25c6.37-1.28,22.35-3.33,28.43-14.3,5.6-10.1,2.02-26.42-6.69-33.36-25.22-20.09-104.45,15.5-153.37,81.51-25.21,34.03-41.63,106.96-23.11,124.34,1.81,1.7,18.4-59.46,47.62-93.7,36.35-42.6,88.11-60.67,107.12-64.5Z"/>
  <path class="cls-2" d="m888.87,139.62s12.25-58.14-35.31-98.71c-11.03-9.41-24.64-16.01-39.61-20.32-10.91-3.14-36.96-3.34-9.99-14.15,36.28-14.54,79.36,19.61,80.51,20.73,3.64,3.56,33.45,23.33,29.83,74.1-.95,13.41-3.78,36.8-10.89,50.17-9.51,17.9-21.21,33.85-14.54-11.82Z"/>
  <path class="cls-2" d="m567.6,851.63s-13.08,37.25,18.51,54.31c31.58,17.06,66.62,16.61,66.62,16.61,0,0,33.56.9,55.27-9.43,9.77-4.65,14.75-1.75,17.26,2.85,3.99,7.29.51,16.18-7.41,19.97-11.21,5.36-33.13,12.12-71.54,11.29-62.68-1.35-83.4-41.29-87.84-58.35s9.13-37.25,9.13-37.25Z"/>
  <path class="cls-2" d="m891.71,564.66c-.07,2.21,2.11,7.89,2.99,10.02,5.63,13.5,30.69,74.23-21.37,114.64-33.66,26.13-24.9,23.43-7.94,15.2,16.04-7.78,39.71-22.54,48.13-34.54,17.22-24.51,32.61-66.09,2.14-101.42-16.52-19.15-23.73-10.43-23.95-3.91Z"/>
  <path class="cls-1" d="m156.41,12.64s19.99-8.42,38.49,0c10.8,4.91,9.09,9.41,6.99,12.31-3.3,4.55-8.13,4.13-12.65,3.1-3.62-.82-6.6-3.06-8.47-6-1.33-2.08-3.52-4.46-7.34-5.71-9.14-3-17.03-3.7-17.03-3.7Z"/>
  <path class="cls-1" d="m142.69,33.58c-4.41-1.9-7.4-6.98-3.98-9.72.14-.11.28-.22.43-.33,4.79-3.56,12.36-5.04,12.36-5.04,0,0,5.27.23,6.55,2.7.32.62.39,1.3.31,1.97-.26,2.25-2.17,4.07-4.58,7.67l-11.1,2.76Z"/>
  <path class="cls-1" d="m707.01,930.64c-17.13,4.45-49.52,11.23-74.76,6.83,0,0,21.47,6.17,44.05,3.25,12.08-1.56,23.43-5.31,31.36-8.45,1.09-.43.5-1.93-.64-1.63Z"/>
  <path class="cls-1" d="m911.75,578.97c-.04-.96,1.19-1.79,3.78-1.34,3.6.64,6.99,6.35,8.97,11.97,2.75,7.79,1.87,15.57,1.87,15.57,0,0-1.48-8.71-4.12-12.63-2.63-3.92-10.24-7.39-10.5-13.57Z"/>
  <path class="cls-1" d="m901.08,569.55c-1.98-2.03.4-4.94,3.14-3.86.11.04.22.09.33.14,3.66,1.59,6.8,5.18,6.8,5.18,0,0,1.38,2.84.17,4.16-.3.33-.72.54-1.17.68-1.52.45-3.23-.07-4.31-1.18l-4.98-5.12Z"/>
  <path class="cls-1" d="m876.54,27.35s-38.1-21.35-70.63-17.97c0,0,10.82-4.16,28.85-1.17,26.1,4.33,41.79,19.14,41.79,19.14Z"/>
</svg>